#!OML:ASF F:\VICON\USERDATA\INSTALL\Justin_Nancy\Justin_Nancy.ASF
:FULLY-SPECIFIED
:DEGREES
63
root 13.2732 17.0861 -13.3432 -2.32969 6.03457 5.56981
lowerback 7.98396 0.101803 -3.8061
upperback 0.443683 -0.178352 0.690133
thorax -4.00639 -0.0134512 2.87876
lowerneck -15.8534 -3.88571 -10.7944
upperneck 23.4667 -4.11982 6.12119
head 10.5063 -2.13756 3.43793
rclavicle 8.57259e-015 -3.97569e-015
rhumerus -36.0618 -17.2323 -72.362
rradius 36.9548
rwrist 5.59514
rhand -11.704 10.0209
rfingers 7.12502
rthumb 14.3422 -19.4637
lclavicle 8.57259e-015 -3.97569e-015
lhumerus -34.944 24.2918 74.3442
lradius 14.5948
lwrist -22.1019
lhand -13.0306 28.0364
lfingers 7.12502
lthumb 13.0637 57.6073
rfemur -12.1616 -3.73266 21.3916
rtibia 73.4365
rfoot 1.85623 -8.44078
rtoes 6.40544
lfemur -21.7863 -0.565545 -23.8222
ltibia 34.9142
lfoot -7.20296 -3.24868
ltoes -3.3583
64
root 13.2617 17.122 -13.1362 -2.32022 5.87133 5.69531
lowerback 8.0521 0.0997752 -3.87295
upperback 0.463615 -0.191456 0.645229
thorax -4.0228 -0.019092 2.87154
lowerneck -16.0241 -3.85987 -10.609
upperneck 23.6993 -4.07468 5.9393
head 10.6116 -2.12229 3.34996
rclavicle -1.35174e-014 6.36111e-015
rhumerus -36.6425 -17.3658 -72.3071
rradius 35.9624
rwrist 6.41468
rhand -11.6058 10.6044
rfingers 7.12502
rthumb 14.4369 -18.8734
lclavicle -1.35174e-014 6.36111e-015
lhumerus -34.1634 23.9269 74.7794
lradius 14.855
lwrist -21.8972
lhand -13.4266 28.4991
lfingers 7.12502
lthumb 12.682 58.094
rfemur -13.836 -4.01845 21.3138
rtibia 73.7966
rfoot 0.856759 -8.96785
rtoes 6.61326
lfemur -20.8732 -0.811542 -23.7586
ltibia 35.1336
lfoot -8.09768 -2.89787
ltoes -1.16342
65
root 13.2489 17.1651 -12.9365 -2.30942 5.69733 5.78924
lowerback 8.04622 0.0648906 -3.92376
upperback 0.497102 -0.242956 0.615013
thorax -3.98052 -0.0454137 2.87434
lowerneck -15.7714 -3.83733 -10.4888
upperneck 23.5723 -4.07963 5.85844
head 10.5119 -2.12537 3.29899
rclavicle 6.33626e-015 0
rhumerus -37.1208 -17.3762 -72.3116
rradius 34.7122
rwrist 7.33702
rhand -11.7316 11.4674
rfingers 7.12502
rthumb 14.3156 -18.0191
lclavicle 6.33626e-015 0
lhumerus -33.5387 23.9043 74.8923
lradius 15.0412
lwrist -22.1076
lhand -13.4072 28.184
lfingers 7.12502
lthumb 12.7006 57.7778
rfemur -15.6299 -4.23592 21.276
rtibia 73.9271
rfoot -0.00300519 -9.36588
rtoes 5.21304
lfemur -19.9606 -1.01765 -23.6943
ltibia 35.3114
lfoot -8.96068 -2.4317
ltoes 0.0535883
66
root 13.2309 17.1848 -12.7397 -2.25228 5.46671 5.83159
lowerback 7.84829 0.0802582 -4.04285
upperback 0.586476 -0.220916 0.669135
thorax -3.7777 -0.0378885 2.99362
lowerneck -15.3256 -3.88078 -10.5694
upperneck 23.3571 -4.17606 5.90862
head 10.3601 -2.17481 3.31666
rclavicle 5.34234e-015 -1.19271e-014
rhumerus -37.5886 -17.5212 -72.1526
rradius 33.744
rwrist 8.27554
rhand -11.8243 12.5622
rfingers 7.12502
rthumb 14.2263 -16.9306
lclavicle 5.34234e-015 -1.19271e-014
lhumerus -33.0154 23.0963 75.626
lradius 15.8521
lwrist -21.6648
lhand -13.5047 28.375
lfingers 7.12502
lthumb 12.6067 57.9746
rfemur -17.4597 -4.39403 21.3519
rtibia 73.9225
rfoot -0.942672 -9.50836
rtoes 4.16634
lfemur -19.2323 -0.802443 -23.6151
ltibia 35.309
lfoot -9.62814 -2.02696
ltoes -1.46404
67
root 13.2169 17.1938 -12.5427 -2.23469 5.14764 6.15501
lowerback 7.9592 0.0972522 -4.43339
upperback 0.515963 -0.238999 0.68052
thorax -3.91054 -0.0359193 3.22913
lowerneck -15.0632 -3.54146 -10.3511
upperneck 23.5197 -3.77831 5.86932
head 10.3233 -1.98322 3.3263
rclavicle -1.41137e-014 -8.74653e-015
rhumerus -38.2636 -17.3216 -72.0255
rradius 33.1117
rwrist 8.86453
rhand -11.9376 13.1367
rfingers 7.12502
rthumb 14.1171 -16.3638
lclavicle -1.41137e-014 -8.74653e-015
lhumerus -32.7975 21.502 76.7051
lradius 17.145
lwrist -20.0879
lhand -13.9337 28.139
lfingers 7.12502
lthumb 12.1931 57.7636
rfemur -19.0861 -4.51121 21.0693
rtibia 73.762
rfoot -2.16244 -9.4384
rtoes 4.25691
lfemur -18.3494 -0.586976 -23.8857
ltibia 35.1145
lfoot -10.377 -1.94061
ltoes -2.65841
68
root 13.2015 17.1883 -12.3462 -2.12453 4.94403 6.66349
lowerback 8.27849 0.066321 -4.97713
upperback 0.287777 -0.354914 0.607696
thorax -4.3156 -0.0691949 3.47746
lowerneck -15.0638 -3.57491 -10.4235
upperneck 23.6634 -3.79981 5.8207
head 10.3791 -2.00784 3.32038
rclavicle 1.54804e-014 -1.59028e-015
rhumerus -39.0175 -17.1113 -71.924
rradius 32.4452
rwrist 9.25206
rhand -11.996 13.4257
rfingers 7.12502
rthumb 14.0609 -16.0787
lclavicle 1.54804e-014 -1.59028e-015
lhumerus -32.6394 20.2099 77.4036
lradius 18.0712
lwrist -18.6593
lhand -14.3101 27.4486
lfingers 7.12502
lthumb 11.83 57.0945
rfemur -20.7961 -4.78712 20.5952
rtibia 73.4821
rfoot -3.58039 -9.24548
rtoes 3.18346
lfemur -17.7739 -0.308913 -24.4257
ltibia 34.8915
lfoot -11.2373 -1.21798
ltoes -6.93006
69
root 13.1742 17.1732 -12.1539 -1.88263 5.39463 7.0318
lowerback 8.2794 -0.166291 -5.42659
upperback 0.288489 -0.711092 0.517769
thorax -4.27713 -0.238512 3.67873
lowerneck -15.2795 -3.38001 -10.0477
upperneck 23.881 -3.57794 5.70781
head 10.4673 -1.8852 3.24986
rclavicle -7.90169e-015 4.77083e-015
rhumerus -39.3814 -17.4676 -71.9086
rradius 31.7288
rwrist 9.67174
rhand -11.6961 13.3303
rfingers 7.12502
rthumb 14.3498 -16.1538
lclavicle -7.90169e-015 4.77083e-015
lhumerus -32.0289 17.9805 78.5047
lradius 19.2269
lwrist -16.4113
lhand -14.0213 27.8138
lfingers 7.12502
lthumb 12.1085 57.4434
rfemur -22.5152 -5.58347 20.361
rtibia 72.9444
rfoot -5.25107 -9.0812
rtoes 1.41581
lfemur -17.5224 -0.384406 -24.7673
ltibia 34.711
lfoot -10.9394 -1.4436
ltoes -5.64893
70
root 13.1515 17.161 -11.9781 -1.51778 5.29867 7.29645
lowerback 8.03294 -0.26442 -5.70214
upperback 0.360055 -0.852785 0.453851
thorax -4.04654 -0.312529 3.77886
lowerneck -14.7196 -3.75572 -10.2417
upperneck 23.3883 -4.06377 5.54781
head 10.2289 -2.14595 3.15207
rclavicle -8.69683e-015 7.95139e-016
rhumerus -39.6203 -17.9196 -71.8424
rradius 31.0397
rwrist 10.183
rhand -11.4605 14.1054
rfingers 7.12502
rthumb 14.5768 -15.3624
lclavicle -8.69683e-015 7.95139e-016
lhumerus -31.6232 15.3939 79.7288
lradius 20.9772
lwrist -13.5428
lhand -13.8574 27.3705
lfingers 7.12502
lthumb 12.2666 56.9907
rfemur -24.5184 -5.85719 20.2558
rtibia 72.1781
rfoot -6.90471 -8.92558
rtoes 0.671163
lfemur -17.2604 -0.527844 -24.9339
ltibia 34.6663
lfoot -11.0901 -0.771497
ltoes -4.30889
71
root 13.1289 17.1653 -11.7782 -1.49008 5.47118 7.53765
lowerback 7.90551 -0.481325 -5.97327
upperback 0.471369 -1.15481 0.436271
thorax -3.82158 -0.467253 3.94253
lowerneck -14.7556 -3.67058 -10.2155
upperneck 23.2916 -3.9501 5.56922
head 10.1899 -2.0874 3.16911
rclavicle -1.22253e-014 -1.27222e-014
rhumerus -40.0326 -17.9997 -71.7893
rradius 30.4821
rwrist 10.8995
rhand -11.4347 13.9813
rfingers 7.12502
rthumb 14.6017 -15.4847
lclavicle -1.22253e-014 -1.27222e-014
lhumerus -31.4678 13.7539 80.3999
lradius 22.3796
lwrist -11.7494
lhand -15.2039 27.0342
lfingers 7.12502
lthumb 10.9681 56.7276
rfemur -25.8039 -6.20694 20.162
rtibia 71.034
rfoot -8.21611 -8.83606
rtoes 0.292911
lfemur -16.4707 -0.464598 -25.1033
ltibia 34.801
lfoot -11.9567 -0.399546
ltoes -5.00265
72
root 13.1067 17.161 -11.573 -1.54807 5.53881 8.10696
lowerback 7.96313 -0.663192 -6.62879
upperback 0.522639 -1.45956 0.389452
thorax -3.75186 -0.611335 4.29604
lowerneck -15.1116 -3.10296 -9.86698
upperneck 23.0038 -3.2103 5.63244
head 10.0781 -1.69963 3.22695
rclavicle -1.53064e-014 2.06736e-014
rhumerus -40.451 -17.755 -71.7744
rradius 29.9813
rwrist 11.2558
rhand -10.8388 11.67
rfingers 7.12502
rthumb 15.1758 -17.7535
lclavicle -1.53064e-014 2.06736e-014
lhumerus -31.2834 12.8727 80.7402
lradius 23.3564
lwrist -11.4217
lhand -15.6908 29.6976
lfingers 7.12502
lthumb 10.4984 59.4154
rfemur -26.8962 -6.52565 19.6604
rtibia 69.7273
rfoot -9.06483 -8.44414
rtoes -1.53308
lfemur -15.6312 -0.101019 -25.6806
ltibia 35.0813
lfoot -12.6759 -0.574651
ltoes -4.48934
